<svg width="25" height="25" viewBox="0 0 25 25" fill="none" xmlns="http://www.w3.org/2000/svg">
<path d="M3.02344 12.0948C3.02344 17.1046 7.08446 21.1657 12.0943 21.1657C17.1041 21.1657 21.1652 17.1046 21.1652 12.0948C21.1652 7.08495 17.1041 3.02393 12.0943 3.02393C7.08446 3.02393 3.02344 7.08495 3.02344 12.0948Z" stroke="black" stroke-width="1.51181" stroke-linecap="round" stroke-linejoin="round"/>
<path d="M13.0002 3.06885C13.0002 3.06885 15.7215 6.65184 15.7215 12.0944C15.7215 17.5369 13.0002 21.1199 13.0002 21.1199M11.1861 21.1199C11.1861 21.1199 8.4648 17.5369 8.4648 12.0944C8.4648 6.65184 11.1861 3.06885 11.1861 3.06885M3.59375 15.2692H20.5926M3.59375 8.91956H20.5926" stroke="black" stroke-width="1.51181" stroke-linecap="round" stroke-linejoin="round"/>
</svg>
